<svg width="265" height="169" viewBox="0 0 265 169" fill="none" xmlns="http://www.w3.org/2000/svg">
<path fill-rule="evenodd" clip-rule="evenodd" d="M40.2297 133.331H85.7695V137.394H41.7101L52.7684 168.527H48.6127L19.9888 89.6545L23.8053 88.2632L40.2297 133.331Z" fill="black"/>
<path fill-rule="evenodd" clip-rule="evenodd" d="M6.87882 163.925C6.87882 163.925 7.44021 137.561 7.87002 117.377C8.14508 104.451 18.3276 93.9162 31.2373 93.2026C59.7634 91.6102 87.9251 91.2054 115.506 92.6876C128.903 93.4102 139.965 103.413 142.027 116.67C142.034 116.669 142.034 116.669 142.034 116.669C143.163 123.92 141.193 131.311 136.604 137.037C130.781 144.277 120.95 154.363 105.727 163.984C105.727 163.984 111.357 165.611 111.932 168.126C111.932 168.126 69.1009 168.076 58.1855 168.064C57.7833 168.063 57.4228 167.816 57.2776 167.441C57.1323 167.066 57.2321 166.64 57.5288 166.37C65.1966 159.361 94.0732 132.967 94.0732 132.967L45.3651 133.462C45.3651 133.462 44.5827 160.692 44.3989 167.088C44.3776 167.829 43.768 168.418 43.0265 168.413C35.706 168.362 0.748186 168.122 0.748186 168.122C0.748186 168.122 0.507209 165.566 6.87882 163.925Z" fill="url(#paint0_linear_1_12982)"/>
<path fill-rule="evenodd" clip-rule="evenodd" d="M94.0104 133.024L107.264 132.993C107.39 132.993 107.498 133.085 107.517 133.211C107.536 133.336 107.462 133.457 107.34 133.495L86.2936 140.078L94.0104 133.024ZM45.364 133.5L45.1925 139.473L34.0135 134.441C33.797 134.343 33.6781 134.108 33.728 133.876C33.7781 133.643 33.9836 133.477 34.221 133.479L45.364 133.5Z" fill="#CAB2FF"/>
<path fill-rule="evenodd" clip-rule="evenodd" d="M110.119 37.6707C110.119 37.6707 97.2478 20.2918 68.2932 27.8819C64.394 28.9041 33.51 38.706 21.3267 66.2453C20.1354 68.9382 13.7122 81.1817 23.0241 87.7269C29.5211 92.2953 36.4878 91.4485 60.899 83.2788C62.9647 82.587 75.689 79.8993 73.3886 76.9606C73.3886 76.9606 74.4153 77.1684 74.9082 76.4852C74.9082 76.4852 74.9646 76.8373 75.0064 77.0975C75.0348 77.2753 75.1189 77.4395 75.2465 77.5666C75.83 78.1484 77.5827 79.8954 78.6852 80.9946C78.8748 81.1829 79.1518 81.2547 79.4091 81.1804C79.6663 81.1074 79.8633 80.8998 79.9238 80.6385C80.2493 79.2369 80.7235 77.1952 80.7235 77.1952C80.7235 77.1952 92.304 79.7084 99.2835 68.4236C99.2835 68.4236 99.5743 79.57 108.203 84.0693C110.723 85.3837 124.715 88.1752 128.387 73.7447C130.954 63.651 132.829 45.6155 134.471 32.6571C134.471 32.6571 143.045 27.2745 143.693 24.6964C143.926 23.7704 142.986 22.2494 140.89 23.7875C140.89 23.7875 144.02 21.1263 142.976 19.8722C142.394 19.1747 141.204 19.1381 138.847 21.1565C138.847 21.1565 141.783 18.1492 140.442 16.9458C138.999 15.6533 137.325 18.3117 135.79 19.7427C135.79 19.7427 139.205 14.4983 137.274 13.5927C136.455 13.209 135.571 13.1607 132.59 16.9149C129.829 20.3914 125.914 20.7502 123.076 20.4091C123.076 20.4091 124.193 13.8589 122.914 13.2243C121.468 12.5071 120.166 13.7892 117.026 20.2304C113.925 26.587 112.379 32.8852 110.119 37.6707Z" fill="url(#paint1_linear_1_12982)"/>
<path fill-rule="evenodd" clip-rule="evenodd" d="M76.0488 26.3657C98.4392 23.5517 109.084 36.3515 110.047 37.5766C108.587 42.7864 106.082 53.916 106.082 53.916L103.447 53.8791C103.489 60.3824 99.2963 68.1549 99.2963 68.1549L99.2796 68.4285C92.6434 79.1516 81.7036 77.3733 80.6705 77.2197L81.0081 75.5239L80.1311 73.0635L79.8583 72.3665C79.8583 72.3665 81.0683 70.7447 82.1404 69.3078C83.0448 68.0954 82.8336 66.3855 81.6611 65.4296C79.3164 63.5182 75.844 60.6875 75.844 60.6875C75.8237 60.672 75.8036 60.6565 75.7836 60.6412C72.9941 58.507 69.4693 57.5722 65.9889 58.0436C58.613 59.0425 43.7832 61.0513 43.7832 61.0513L34.8299 47.2084C45.2753 37.1313 57.5276 31.64 64.0523 29.2575L76.0488 26.3657Z" fill="#CAB2FF"/>
<path fill-rule="evenodd" clip-rule="evenodd" d="M74.9123 76.5108C75.1622 76.207 75.9878 75.0604 75.2473 73.9537L74.2052 72.6936C74.2052 72.6936 75.667 72.9045 76.2611 72.848C76.2611 72.848 76.1795 74.3115 77.3882 74.5659C77.7189 74.6345 78.06 74.5107 78.2699 74.246C78.853 73.5134 80.1593 71.8664 80.1593 71.8664C80.1593 71.8664 80.8876 75.0096 81.0193 75.578C81.0326 75.6357 81.033 75.6956 81.0202 75.7534C80.9001 76.2962 80.2642 79.1728 80.2642 79.1728L79.9238 80.6384C79.8633 80.8997 79.6663 81.1073 79.409 81.1803C79.1518 81.2546 78.8748 81.1829 78.6852 80.9945C77.5827 79.8954 75.83 78.1483 75.2465 77.5665C75.1189 77.4395 75.0348 77.2752 75.0064 77.0974L74.9123 76.5108ZM69.7505 58.0439C69.7505 58.0439 74.3896 58.7234 77.3666 62.0241L75.3156 52.1262L68.5196 52.1656L69.7505 58.0439Z" fill="#39D2C0"/>
<path fill-rule="evenodd" clip-rule="evenodd" d="M80.2997 79.0124L80.2642 79.1725L79.9238 80.6381C79.8633 80.8995 79.6663 81.107 79.4091 81.18C79.1518 81.2543 78.8748 81.1826 78.6852 80.9943L77.1253 79.439L80.2997 79.0124ZM75.6942 72.8477C75.9129 72.8592 76.1136 72.8618 76.2611 72.8477C76.2611 72.8477 76.1795 74.3112 77.3882 74.5656C77.5195 74.5928 77.6524 74.5897 77.7782 74.5595L77.9663 75.4341L80.7953 74.611L81.0193 75.5777C81.0262 75.6076 81.0295 75.6379 81.0295 75.6683L75.1231 77.4107C75.0642 77.3155 75.0243 77.209 75.0064 77.0971L74.9123 76.5105C74.9572 76.4561 75.0205 76.3746 75.0899 76.2709L76.3542 75.9031L75.6942 72.8477ZM72.6787 58.8882L71.2233 52.1496L72.9567 52.1396L74.609 59.8226C73.9463 59.4376 73.2875 59.1308 72.6787 58.8882Z" fill="black"/>
<path fill-rule="evenodd" clip-rule="evenodd" d="M73.6367 77.9181L69.7397 77.6065C69.4578 77.584 69.2471 77.3369 69.2697 77.0549C69.2922 76.7731 69.5394 76.5624 69.8213 76.585L74.2111 76.9358C73.7898 77.0418 73.3886 76.9606 73.3886 76.9606C73.6415 77.2836 73.7128 77.6036 73.6367 77.9181ZM75.402 73.0856C75.4379 73.0587 75.4781 73.0362 75.5219 73.019C75.5219 73.019 76.0128 72.8265 76.5359 72.6212C77.152 72.3796 77.6095 71.85 77.7589 71.2053C77.7589 71.2052 77.7589 71.2052 77.7589 71.2051C78.0636 69.8903 77.5149 68.525 76.3849 67.787C75.1013 66.9485 73.7276 66.051 73.7276 66.051C73.4908 65.8964 73.4241 65.5786 73.5788 65.3418C73.7335 65.1051 74.0513 65.0383 74.2881 65.1931L76.8439 66.8625L76.9123 66.2815C76.9453 66.0006 77.2003 65.7994 77.4811 65.8325C77.7621 65.8655 77.9632 66.1205 77.9301 66.4013L77.7833 67.6476C78.6909 68.6594 79.0744 70.0686 78.7574 71.4365C78.7574 71.4366 78.7574 71.4366 78.7572 71.4367C78.5316 72.4104 77.8407 73.2104 76.9101 73.5754C76.387 73.7805 75.8961 73.9731 75.8961 73.9731C75.7136 74.0447 75.5146 74.0042 75.3752 73.8849C75.2457 73.9816 75.0726 74.0157 74.9076 73.9613L70.5352 72.5187C70.2665 72.4301 70.1205 72.1402 70.2091 71.8715C70.2977 71.603 70.5877 71.4568 70.8562 71.5455L75.2288 72.988C75.2944 73.0097 75.3527 73.0432 75.402 73.0856ZM106.263 48.3034C106.263 48.3034 102.53 63.9571 101.711 70.9482C101.678 71.229 101.879 71.4839 102.161 71.5168C102.441 71.5497 102.696 71.3483 102.728 71.0675C103.544 64.1128 107.261 48.5413 107.261 48.5413C107.326 48.2663 107.156 47.9895 106.88 47.9239C106.606 47.8584 106.33 48.0284 106.263 48.3034ZM46.5398 59.001C37.6523 60.9931 32.2221 62.6853 29.5827 64.1546C29.2739 64.3265 29.1627 64.7169 29.3347 65.0258C29.5066 65.3348 29.897 65.4458 30.2059 65.2739C32.7906 63.8351 38.1161 62.2021 46.8201 60.2511C47.165 60.1738 47.3824 59.8309 47.305 59.486C47.2276 59.141 46.8848 58.9237 46.5398 59.001ZM134.629 32.5555C134.526 32.6218 134.471 32.6571 134.471 32.6571C134.351 33.5952 134.231 34.56 134.111 35.5462L131.482 34.8548C131.382 34.8284 131.307 34.744 131.295 34.6411C131.281 34.5384 131.331 34.4375 131.42 34.3862L134.629 32.5555ZM143.142 20.1722C143.574 21.5056 140.89 23.7875 140.89 23.7875C140.967 23.731 141.043 23.6788 141.116 23.6305C139.244 25.3464 136.716 27.3823 134.276 28.4565C134.017 28.5706 133.715 28.4529 133.601 28.194C133.487 27.9353 133.604 27.6325 133.863 27.5186C137.972 25.71 142.329 21.0645 143.142 20.1722ZM140.792 17.7992C140.768 19.1882 138.847 21.1565 138.847 21.1565C138.988 21.0348 139.126 20.9205 139.261 20.8135C137.375 22.6268 134.643 25.0233 132.244 26.2418C131.992 26.3699 131.683 26.269 131.555 26.0169C131.427 25.7647 131.528 25.456 131.78 25.3279C135.65 23.3625 140.402 18.2253 140.792 17.7992ZM137.662 15.9064C137.14 17.6703 135.79 19.7427 135.79 19.7427C135.832 19.7037 135.875 19.6639 135.916 19.6234C134.353 21.2591 132.243 23.0499 129.869 23.9504C129.604 24.0505 129.308 23.9173 129.208 23.6529C129.108 23.3885 129.241 23.0923 129.505 22.992C133.603 21.4378 136.855 17.0646 137.662 15.9064Z" fill="#CAB2FF"/>
<path fill-rule="evenodd" clip-rule="evenodd" d="M59.497 58.9244L63.4591 54.7181C63.6374 54.5289 63.9139 54.4689 64.1545 54.5676C64.3952 54.6661 64.5502 54.9027 64.5445 55.1628L64.4766 58.25L59.497 58.9244ZM103.438 54.5141C103.427 53.9556 103.347 50.6499 103.006 48.3816C102.981 48.2744 103.04 48.1649 103.144 48.1265C103.246 48.0881 103.363 48.1328 103.413 48.2308C104.153 49.6412 105.278 51.9281 105.922 53.9152L103.447 53.8806C103.448 54.0906 103.445 54.302 103.438 54.5141Z" fill="#346864"/>
<path d="M75.0848 22.583C80.6072 22.583 85.084 18.0912 85.084 12.5503C85.084 7.00937 80.6072 2.51758 75.0848 2.51758C69.5624 2.51758 65.0856 7.00937 65.0856 12.5503C65.0856 18.0912 69.5624 22.583 75.0848 22.583Z" fill="#996BFF"/>
<path fill-rule="evenodd" clip-rule="evenodd" d="M68.4372 20.0422C66.381 18.2037 65.0856 15.5275 65.0856 12.5502C65.0856 7.01301 69.5662 2.51758 75.0848 2.51758C78.465 2.51758 81.4558 4.20403 83.2662 6.78381L75.0772 14.1055C74.9791 13.817 74.8292 13.5357 74.6268 13.2769C73.7713 12.1832 72.2992 11.9034 71.3415 12.6525C70.3839 13.4015 70.301 14.8976 71.1565 15.9913C71.4224 16.3312 71.7476 16.5924 72.0987 16.7687L68.4372 20.0422Z" fill="#CAB2FF"/>
<path d="M186.403 29.9254H178.762L181.984 41.0235H189.625L186.403 29.9254Z" fill="white"/>
<path fill-rule="evenodd" clip-rule="evenodd" d="M182.173 40.7699H184.585C184.724 40.7699 184.838 40.8833 184.838 41.023C184.838 41.1627 184.724 41.2761 184.585 41.2761H181.983C181.871 41.2761 181.772 41.2018 181.741 41.0936L178.519 29.9955C178.497 29.919 178.512 29.8365 178.56 29.7729C178.608 29.7092 178.682 29.6718 178.762 29.6718H184.122C184.262 29.6718 184.375 29.7852 184.375 29.9249C184.375 30.0646 184.262 30.178 184.122 30.178H179.099L182.173 40.7699Z" fill="#39D2C0"/>
<path fill-rule="evenodd" clip-rule="evenodd" d="M186.213 30.178H184.122C183.982 30.178 183.869 30.0646 183.869 29.9249C183.869 29.7852 183.982 29.6718 184.122 29.6718H186.403C186.515 29.6718 186.614 29.7461 186.645 29.8543L189.867 40.9524C189.889 41.0289 189.875 41.1114 189.827 41.1751C189.779 41.2387 189.704 41.2761 189.625 41.2761H184.585C184.445 41.2761 184.331 41.1627 184.332 41.023C184.332 40.8833 184.446 40.7699 184.585 40.7699H189.287L186.213 30.178Z" fill="#39D2C0"/>
<path d="M186.076 30.9214H179.75L180.174 32.1489H186.5L186.076 30.9214Z" fill="#39D2C0"/>
<path d="M186.696 32.9375H180.37L180.794 34.165H187.12L186.696 32.9375Z" fill="#39D2C0"/>
<path d="M187.317 34.9536H180.991L181.415 36.1811H187.741L187.317 34.9536Z" fill="#39D2C0"/>
<path d="M187.937 36.9669H181.611L182.035 38.1944H188.361L187.937 36.9669Z" fill="#39D2C0"/>
<path d="M188.557 38.983H182.231L182.655 40.2105H188.981L188.557 38.983Z" fill="#39D2C0"/>
<path fill-rule="evenodd" clip-rule="evenodd" d="M188.162 36.2966C187.912 35.5922 186.421 31.1844 187.573 29.3128C187.651 29.191 187.775 29.1064 187.916 29.0794C188.326 29.013 189.2 29.1859 190.436 31.179C190.436 31.179 201.661 48.0378 205.713 50.5566C205.713 50.5566 205.821 37.6835 220.978 35.5788C223.081 35.2865 237.868 32.4125 246.155 52.9289C248.897 59.7166 248.866 65.1438 248.817 70.9449C248.785 75.5434 246.399 79.8047 242.493 82.2324C237.375 85.4147 231.028 85.9117 225.477 83.5635C221.753 81.9941 216.946 80.3991 211.49 79.5959L199.511 78.4377C199.511 78.4377 200.11 81.711 195.15 81.0807C195.15 81.0807 191.246 80.5657 192.026 77.9467C192.026 77.9467 189.394 77.5211 189.938 74.9776C189.938 74.9776 187.443 73.0313 189.658 70.6554C189.658 70.6554 182.457 70.5687 180.993 67.1393C180.87 66.8426 180.862 66.5099 180.974 66.2082C181.108 65.8353 181.457 65.4382 182.306 65.4091C182.306 65.4091 192.268 65.256 194.889 64.5054L189.194 54.8175C189.194 54.8175 184.759 52.3796 183.737 48.4826C182.684 48.4875 181.79 47.6753 181.709 46.6085C181.64 45.6959 182.188 44.8781 183 44.5649L182.534 44.6001C181.432 44.6831 180.471 43.8565 180.388 42.7554C180.322 41.8667 180.847 41.0691 181.631 40.7507C180.567 40.7998 179.651 39.9935 179.571 38.9257C179.489 37.8384 180.305 36.8891 181.391 36.8071L188.162 36.2966Z" fill="url(#paint2_linear_1_12982)"/>
<path fill-rule="evenodd" clip-rule="evenodd" d="M199.347 79.7008C197.003 79.5662 195.121 80.1287 195.121 80.1287C194.781 80.2311 194.424 80.0377 194.323 79.6995C194.222 79.3613 194.414 79.0038 194.753 78.9013C194.753 78.9013 197.491 78.0804 200.598 78.5439L199.511 78.4389C199.511 78.4389 199.624 79.0551 199.347 79.7008ZM190.82 77.4465C191.269 76.0869 192.794 73.0878 197.642 72.3481C197.991 72.2948 198.319 72.5352 198.371 72.8847C198.425 73.2342 198.184 73.5613 197.834 73.6146C193.559 74.2669 192.324 76.9534 192.009 77.945C191.909 77.9264 191.344 77.8092 190.82 77.4465ZM189.013 73.8055C189.639 72.4693 191.347 70.298 195.936 69.4433C196.283 69.3786 196.619 69.6081 196.683 69.9557C196.748 70.3033 196.517 70.638 196.17 70.7027C190.445 71.7691 189.92 75.0595 189.938 74.9787C189.938 74.9787 189.365 74.532 189.013 73.8055ZM188.068 70.5457C188.818 69.5742 191.19 66.8708 194.692 66.3691C195.041 66.3189 195.367 66.5623 195.417 66.9123C195.467 67.2623 195.223 67.5871 194.874 67.6373C192.409 67.9904 190.602 69.6058 189.649 70.6617C189.53 70.6594 188.913 70.6378 188.068 70.5457ZM225.327 64.062L233.148 66.8114C233.481 66.9286 233.848 66.7531 233.966 66.4195C234.082 66.086 233.907 65.72 233.574 65.6028L225.752 62.8532C225.418 62.736 225.053 62.9116 224.935 63.2451C224.818 63.5787 224.994 63.9446 225.327 64.062ZM194.222 63.3695C195.043 63.2072 204.081 61.4522 210.674 61.523C211.027 61.5269 211.312 61.8169 211.308 62.1705C211.304 62.524 211.013 62.8079 210.66 62.8042C203.859 62.731 194.714 64.557 194.889 64.5065L194.222 63.3695ZM189.194 54.8186L191.176 55.7101C191.434 55.8294 191.544 56.1344 191.426 56.3909C191.306 56.6474 191.001 56.7588 190.745 56.6396L190.085 56.3325L189.194 54.8186ZM187.826 35.2554C188.986 35.4442 189.811 36.0634 190.11 36.553C190.781 37.6459 190.515 38.7186 189.875 39.4827C189.916 39.6862 189.986 39.9969 190.093 40.3753C190.248 40.4844 190.378 40.5979 190.487 40.7111C191.08 41.3273 191.119 41.9812 191.13 42.183C191.143 42.4261 191.121 42.6523 191.07 42.8621C191.629 43.9134 192.415 44.9502 193.526 45.5468C193.774 45.6806 193.868 45.9915 193.735 46.2407C193.602 46.4898 193.29 46.5835 193.04 46.4497C192.57 46.1968 192.147 45.878 191.767 45.5155C191.768 45.5204 191.77 45.5252 191.771 45.53C192.187 46.8312 191.52 48.236 190.244 48.7332C188.302 49.4953 185.58 49.5459 184.093 49.5052C183.95 49.1771 183.829 48.8364 183.737 48.4838C183.606 48.4844 187.629 48.6582 189.87 47.7786C190.651 47.4742 191.055 46.6092 190.787 45.8148C190.783 45.806 190.781 45.797 190.778 45.788C190.586 45.2596 190.061 44.9257 189.499 44.9788L188.444 45.0786C188.241 45.1386 188.113 45.1649 188.113 45.1649C188.011 45.1859 187.908 45.1745 187.819 45.1376L181.849 45.7018C182.057 45.1854 182.473 44.7694 183 44.566L188.255 44.067C188.567 43.9685 189.037 43.7851 189.438 43.4843C189.815 43.2013 190.139 42.8054 190.107 42.2395C190.1 42.1275 190.078 41.7646 189.749 41.4223C189.342 41.0004 188.542 40.645 187.014 40.6097C186.973 40.6088 186.933 40.603 186.896 40.593C185.106 40.6522 183.272 40.6797 181.448 40.7517C180.778 40.7209 180.184 40.3519 179.85 39.8018C182.501 39.6513 185.206 39.6406 187.792 39.5344C188.157 39.5194 188.555 39.3311 188.874 39.0458C188.918 38.9684 188.982 38.9028 189.06 38.8571C189.457 38.3986 189.626 37.7606 189.237 37.0883C188.876 36.4654 188.162 36.2977 188.162 36.2977C188.103 36.1306 187.974 35.7554 187.826 35.2554ZM191.066 45.181C190.893 45.2541 190.866 45.3303 190.854 45.355C190.88 45.3162 190.914 45.2808 190.951 45.2506C190.986 45.2231 191.024 45.1996 191.066 45.1812L191.075 45.1776L191.066 45.181ZM190.491 43.9117C190.442 43.9651 190.39 44.0168 190.337 44.0665C190.459 44.1076 190.577 44.1588 190.69 44.2196C190.62 44.1179 190.555 44.0151 190.491 43.9117Z" fill="#996BFF"/>
<path fill-rule="evenodd" clip-rule="evenodd" d="M205.671 50.5312L205.713 50.5576C205.713 50.5576 205.821 37.6845 220.978 35.5797C223.081 35.2875 237.868 32.4135 246.155 52.9299C246.185 53.0012 246.213 53.0723 246.241 53.1432C241.329 58.3131 235.93 54.4163 235.93 54.4163C233.289 62.488 224.847 59.02 224.847 59.02L227.578 64.8516C221.199 62.509 208.792 62.849 208.792 62.849C206.219 59.6073 205.731 53.7691 205.671 50.5312Z" fill="#996BFF"/>
<path fill-rule="evenodd" clip-rule="evenodd" d="M224.592 63.989C224.592 63.989 222.944 58.6714 221.758 54.8469C221.705 54.6755 221.792 54.4919 221.958 54.4241C222.124 54.3565 222.315 54.4272 222.397 54.587C224.497 58.6927 227.662 64.8795 227.662 64.8795L224.592 63.989Z" fill="#996BFF"/>
<path fill-rule="evenodd" clip-rule="evenodd" d="M177.75 98.4175C189.643 83.9922 214.27 89.3434 219.691 90.0582C254.78 94.6843 246.997 121.638 245.729 125.08C242.944 132.635 236.238 135.557 226.232 136.573V165.894C226.232 165.894 223.177 163.166 222.475 160.068C222.475 160.068 221.271 159.994 219.188 159.785C219.188 159.785 220.773 164.086 221.607 166.351C221.722 166.661 221.677 167.007 221.488 167.277C221.299 167.549 220.991 167.71 220.66 167.71H180.815C182.985 163.749 187.258 163.782 187.258 163.782C185.588 159.601 183.866 155.535 182.171 151.384C171.259 147.024 161.637 140.552 158.702 130.996C157.563 127.289 156.89 110.976 177.75 98.4175Z" fill="url(#paint3_linear_1_12982)"/>
<path fill-rule="evenodd" clip-rule="evenodd" d="M183.362 154.278C187.329 156.28 194.197 158.137 198.749 150.498C198.845 150.336 199.008 150.225 199.194 150.193C199.379 150.163 199.569 150.215 199.714 150.337C199.714 150.337 202.56 152.744 206.062 153.933C208.081 154.618 210.325 154.908 212.342 153.998C213.677 153.395 214.901 152.264 215.902 150.402C216.068 150.091 216.457 149.973 216.769 150.141C217.081 150.309 217.197 150.697 217.029 151.008C215.867 153.172 214.421 154.465 212.868 155.165C210.551 156.212 207.969 155.934 205.649 155.146C202.893 154.21 200.518 152.566 199.465 151.77C194.888 158.81 188.405 157.815 184.068 155.985L183.765 155.256C183.659 154.999 183.553 154.741 183.446 154.484L183.362 154.278Z" fill="#996BFF"/>
<path fill-rule="evenodd" clip-rule="evenodd" d="M212.126 136.838C212.126 136.838 201.25 136.793 195.264 136.769C195.02 136.768 194.811 136.95 194.779 137.193C194.748 137.437 194.902 137.666 195.139 137.727C201.411 139.372 213.426 142.524 213.426 142.524L212.126 136.838Z" fill="#996BFF"/>
<path fill-rule="evenodd" clip-rule="evenodd" d="M227.016 136.489C226.756 136.518 226.495 136.546 226.232 136.573V137.824C221.456 138.123 217.031 138.198 212.716 138.139L220.556 159.915C220.157 159.879 219.698 159.837 219.188 159.786L220.331 162.889C220.265 162.823 220.212 162.743 220.178 162.649L211.346 138.117C210.539 138.1 209.736 138.08 208.933 138.056C208.58 138.045 208.302 137.749 208.313 137.397C208.323 137.043 208.619 136.765 208.971 136.776C214.718 136.949 220.533 136.928 227.016 136.489ZM180.969 95.2113C173.667 101.722 170.788 108.827 172.801 121.205C174.172 129.635 177.788 140.468 183.791 155.135C183.831 155.231 183.845 155.333 183.837 155.43C183.281 154.086 182.725 152.74 182.172 151.384C181.66 151.181 181.153 150.972 180.648 150.758C175.761 138.398 172.763 128.949 171.537 121.411C170.037 112.195 171.155 105.783 174.68 100.397C175.647 99.7285 176.669 99.0687 177.75 98.4179C178.741 97.2162 179.819 96.1516 180.969 95.2113Z" fill="#996BFF"/>
<path d="M209.384 34.8715C214.575 34.8715 218.782 30.6326 218.782 25.4037C218.782 20.1747 214.575 15.9358 209.384 15.9358C204.193 15.9358 199.986 20.1747 199.986 25.4037C199.986 30.6326 204.193 34.8715 209.384 34.8715Z" fill="#CAB2FF"/>
<path fill-rule="evenodd" clip-rule="evenodd" d="M202.088 19.4383C203.812 17.3017 206.441 15.9354 209.385 15.9354C214.572 15.9354 218.783 20.1777 218.783 25.4032C218.783 26.4713 218.608 27.4982 218.283 28.4557C216.626 28.3105 215.684 27.0761 215.36 26.5599C215.966 26.2478 216.387 25.5599 216.387 24.7622C216.387 23.6715 215.6 22.7859 214.628 22.7859C213.657 22.7859 212.869 23.6715 212.869 24.7622C212.869 25.02 212.913 25.2665 212.994 25.4925C207.039 26.1339 203.252 21.2179 202.088 19.4383ZM206.356 14.4284C206.6 14.5104 206.867 14.4166 207.007 14.2008C207.145 13.985 207.121 13.7023 206.946 13.5143C206.896 13.4527 206.839 13.3928 206.78 13.331C205.299 11.7866 203.631 10.3851 201.854 9.19955C196.389 5.55209 189.877 2.82383 183.476 1.37618C176.863 -0.119138 168.608 -0.203305 162.765 3.66655C158.921 6.21225 156.046 11.5988 159.36 15.8052C160.549 17.314 162.257 18.3626 164.022 19.0687C171.168 21.9272 178.619 20.1239 185.408 17.2616C189.273 15.6319 193.116 13.4715 197.326 12.8011C199.969 12.3803 204.046 13.6104 206.356 14.4284Z" fill="#996BFF"/>
<path fill-rule="evenodd" clip-rule="evenodd" d="M242.601 136.894L260.484 88.613L264.3 90.0043L235.903 167.924H231.108L241.097 140.955H212.646V136.894H242.601Z" fill="black"/>
<path d="M173.963 38.3368H120.203L126.564 76.0929H180.324L173.963 38.3368Z" fill="black"/>
<path d="M160.185 74.2122H148.182L149.928 84.5765H161.931L160.185 74.2122Z" fill="black"/>
<path d="M171.022 41.2153H123.998L129.256 72.4281H176.28L171.022 41.2153Z" fill="#EAEAEB"/>
<path d="M169.53 43.9738H153.552L155.888 57.8381H171.866L169.53 43.9738Z" fill="white"/>
<path fill-rule="evenodd" clip-rule="evenodd" d="M154.007 44.3579L154.815 49.1537C154.85 49.3629 154.709 49.5613 154.499 49.5965C154.29 49.6318 154.092 49.4906 154.056 49.2814L153.173 44.0374C153.154 43.9259 153.185 43.8117 153.259 43.7254C153.332 43.639 153.439 43.5892 153.552 43.5892H169.53C169.718 43.5892 169.878 43.7247 169.909 43.9097L170.793 49.1537C170.828 49.3629 170.686 49.5613 170.477 49.5965C170.268 49.6318 170.07 49.4906 170.035 49.2814L169.205 44.3579H154.007Z" fill="black"/>
<path fill-rule="evenodd" clip-rule="evenodd" d="M171.411 57.4542L170.035 49.282C169.999 49.0728 170.14 48.8744 170.35 48.8391C170.559 48.8039 170.757 48.9451 170.792 49.1543L172.245 57.7747C172.263 57.8862 172.232 58.0003 172.159 58.0867C172.086 58.173 171.979 58.2227 171.866 58.2227H155.888C155.7 58.2227 155.54 58.0874 155.509 57.9023L154.056 49.282C154.021 49.0728 154.162 48.8744 154.372 48.8391C154.581 48.8039 154.779 48.9451 154.814 49.1543L156.213 57.4542H171.411Z" fill="black"/>
<path fill-rule="evenodd" clip-rule="evenodd" d="M161.675 57.8382H160.896L158.545 43.9738H159.325L161.675 57.8382ZM167.359 57.8382H166.579L164.229 43.9738H165.008L167.359 57.8382Z" fill="black"/>
<path fill-rule="evenodd" clip-rule="evenodd" d="M171.328 54.6466H155.35L155.221 53.8779H171.199L171.328 54.6466ZM170.753 51.2292H154.775L154.646 50.4605H170.624L170.753 51.2292ZM170.134 47.5542H154.156L154.025 46.7855H170.005L170.134 47.5542Z" fill="black"/>
<path fill-rule="evenodd" clip-rule="evenodd" d="M149.498 69.6742H162.25L158.707 48.6415H149.499" fill="white"/>
<path fill-rule="evenodd" clip-rule="evenodd" d="M158.382 49.0256H149.498C149.286 49.0256 149.114 48.8534 149.114 48.6413C149.114 48.4292 149.286 48.257 149.498 48.257H158.707C158.895 48.257 159.055 48.3924 159.086 48.5774L162.629 69.6102C162.648 69.7217 162.617 69.8358 162.544 69.9222C162.471 70.0085 162.363 70.0583 162.25 70.0583H149.498C149.286 70.0583 149.114 69.8861 149.114 69.674C149.114 69.4618 149.286 69.2896 149.498 69.2896H161.796L158.382 49.0256Z" fill="black"/>
<path fill-rule="evenodd" clip-rule="evenodd" d="M149.498 48.6415H131.021L134.565 69.6742H149.498" fill="white"/>
<path fill-rule="evenodd" clip-rule="evenodd" d="M134.889 69.2896H149.498C149.71 69.2896 149.883 69.4618 149.883 69.674C149.882 69.8861 149.711 70.0583 149.498 70.0583H134.564C134.377 70.0583 134.217 69.9229 134.186 69.7379L130.642 48.7052C130.623 48.5937 130.655 48.4795 130.728 48.3931C130.801 48.3068 130.908 48.257 131.021 48.257H149.498C149.71 48.257 149.883 48.4292 149.883 48.6413C149.883 48.8534 149.711 49.0256 149.498 49.0256H131.476L134.889 69.2896Z" fill="black"/>
<path d="M158.707 48.6415H131.022L131.447 51.1672H159.133L158.707 48.6415Z" fill="black"/>
<path fill-rule="evenodd" clip-rule="evenodd" d="M161.254 63.7568H133.567L133.438 62.9881H161.124L161.254 63.7568ZM160.112 56.983H132.427L132.297 56.2144H159.983L160.112 56.983Z" fill="black"/>
<path fill-rule="evenodd" clip-rule="evenodd" d="M141.66 69.6741H140.881L137.316 48.6415H138.095L141.66 69.6741ZM149.205 69.6741H148.424L144.859 48.6415H145.639L149.205 69.6741ZM156.654 69.6741H155.875L152.31 48.6415H153.089L156.654 69.6741Z" fill="black"/>
<path d="M159.217 60.8225C159.233 61.0323 159.193 61.2269 159.096 61.4062C158.993 61.5811 158.843 61.7254 158.635 61.8399C158.427 61.9494 158.175 62.0182 157.879 62.0414C157.523 62.0692 157.228 62.0286 156.987 61.9149C156.819 61.8347 156.674 61.7185 156.561 61.5702C156.444 61.4223 156.382 61.275 156.37 61.1286C156.364 61.0408 156.388 60.9653 156.448 60.9016C156.504 60.8335 156.577 60.7983 156.672 60.7909C156.747 60.785 156.814 60.8043 156.873 60.8439C156.932 60.8884 156.982 60.958 157.025 61.048C157.079 61.1567 157.136 61.2454 157.197 61.3143C157.253 61.3836 157.333 61.4411 157.432 61.4824C157.536 61.5234 157.663 61.538 157.819 61.5258C158.034 61.5089 158.206 61.4464 158.334 61.3382C158.462 61.2301 158.517 61.103 158.506 60.9566C158.497 60.8395 158.454 60.7496 158.373 60.6823C158.297 60.6146 158.198 60.5684 158.08 60.5384C157.961 60.5084 157.803 60.4815 157.609 60.4525C157.348 60.414 157.128 60.3625 156.946 60.2982C156.764 60.2339 156.621 60.1371 156.505 60.0088C156.394 59.88 156.331 59.718 156.315 59.5131C156.3 59.3228 156.341 59.1478 156.435 58.9883C156.534 58.8333 156.68 58.704 156.874 58.6103C157.073 58.5113 157.311 58.4534 157.587 58.4318C157.807 58.4146 158 58.424 158.164 58.4652C158.329 58.5063 158.47 58.5689 158.582 58.6484C158.694 58.728 158.777 58.8148 158.835 58.9085C158.892 59.0021 158.925 59.0929 158.932 59.1856C158.939 59.2685 158.915 59.3489 158.859 59.4171C158.8 59.4905 158.727 59.5305 158.637 59.5376C158.552 59.5442 158.49 59.5294 158.442 59.4939C158.393 59.4536 158.343 59.3937 158.286 59.3049C158.21 59.1783 158.122 59.0821 158.026 59.016C157.93 58.9498 157.782 58.9222 157.576 58.9383C157.391 58.9528 157.243 59.0036 157.134 59.0955C157.025 59.1826 156.973 59.2849 156.981 59.3971C156.987 59.4654 157.012 59.5273 157.056 59.5729C157.1 59.6235 157.153 59.6586 157.226 59.6921C157.299 59.7208 157.372 59.7446 157.444 59.7635C157.516 59.7775 157.633 59.7977 157.797 59.8242C158.001 59.8573 158.19 59.8916 158.36 59.9323C158.525 59.9783 158.671 60.0356 158.792 60.1046C158.914 60.1737 159.012 60.2691 159.087 60.3859C159.161 60.5028 159.203 60.6468 159.217 60.8225Z" fill="black"/>
<path fill-rule="evenodd" clip-rule="evenodd" d="M157.1 58.2705L157.647 62.2558C157.676 62.466 157.87 62.6131 158.079 62.5844C158.29 62.5556 158.437 62.3615 158.409 62.1514L157.862 58.166C157.834 57.9558 157.639 57.8087 157.429 57.8374C157.219 57.8663 157.072 58.0603 157.1 58.2705Z" fill="black"/>
<path fill-rule="evenodd" clip-rule="evenodd" d="M134.588 52.3968L135.028 54.9515C135.064 55.1605 135.263 55.301 135.472 55.2651C135.681 55.2291 135.822 55.0301 135.785 54.8211L135.345 52.2665C135.31 52.0574 135.111 51.9169 134.902 51.9529C134.693 51.9889 134.552 52.1877 134.588 52.3968Z" fill="black"/>
<path fill-rule="evenodd" clip-rule="evenodd" d="M137.015 65.4492L137.455 68.0038C137.49 68.2129 137.69 68.3533 137.899 68.3175C138.108 68.2815 138.249 68.0825 138.212 67.8734L137.772 65.3189C137.736 65.1098 137.538 64.9693 137.329 65.0053C137.12 65.0413 136.979 65.2401 137.015 65.4492Z" fill="black"/>
<path fill-rule="evenodd" clip-rule="evenodd" d="M143.434 58.9735C143.551 58.9564 143.65 59.0531 143.744 59.1721C143.902 59.3675 144.017 59.6535 144.065 59.9794C144.112 60.3053 144.082 60.6123 143.987 60.8444C143.93 60.9854 143.863 61.1061 143.746 61.1231C143.536 61.1536 143.391 61.3487 143.421 61.5586C143.452 61.7685 143.646 61.9143 143.856 61.8839C144.152 61.8409 144.415 61.6534 144.597 61.344C144.805 60.9877 144.91 60.4499 144.826 59.869C144.741 59.2881 144.488 58.8022 144.187 58.5199C143.925 58.275 143.62 58.1698 143.323 58.2128C143.113 58.2433 142.968 58.4383 142.999 58.6483C143.029 58.8582 143.224 59.0039 143.434 58.9735Z" fill="black"/>
<path fill-rule="evenodd" clip-rule="evenodd" d="M143.746 61.1219C143.63 61.1387 143.53 61.0422 143.435 60.9233C143.279 60.7276 143.163 60.4417 143.116 60.1158C143.069 59.79 143.098 59.4829 143.192 59.251C143.25 59.1099 143.318 58.9891 143.434 58.9722C143.644 58.9417 143.79 58.7466 143.76 58.5367C143.729 58.3267 143.533 58.1811 143.323 58.2116C143.027 58.2545 142.766 58.4419 142.584 58.7513C142.374 59.1078 142.271 59.6453 142.355 60.2262C142.439 60.8071 142.691 61.2932 142.994 61.5754C143.256 61.8203 143.56 61.9256 143.856 61.8826C144.066 61.8521 144.212 61.6569 144.182 61.447C144.152 61.2371 143.956 61.0914 143.746 61.1219Z" fill="black"/>
<path fill-rule="evenodd" clip-rule="evenodd" d="M144.481 65.7159C144.599 65.6989 144.697 65.7955 144.792 65.9146C144.949 66.11 145.065 66.396 145.112 66.7218C145.16 67.0478 145.13 67.3547 145.035 67.5869C144.978 67.7279 144.911 67.8485 144.793 67.8656C144.583 67.896 144.438 68.0912 144.469 68.3011C144.499 68.511 144.694 68.6568 144.904 68.6263C145.2 68.5833 145.462 68.3958 145.645 68.0864C145.853 67.7301 145.958 67.1923 145.873 66.6114C145.789 66.0305 145.536 65.5447 145.235 65.2623C144.972 65.0174 144.667 64.9123 144.371 64.9552C144.161 64.9857 144.016 65.1808 144.046 65.3908C144.077 65.6006 144.271 65.7464 144.481 65.7159Z" fill="black"/>
<path fill-rule="evenodd" clip-rule="evenodd" d="M144.793 67.8643C144.677 67.8812 144.578 67.7847 144.483 67.6657C144.327 67.4701 144.211 67.1842 144.164 66.8582C144.116 66.5324 144.146 66.2253 144.24 65.9934C144.297 65.8523 144.365 65.7315 144.481 65.7147C144.691 65.6842 144.838 65.489 144.807 65.2791C144.777 65.0691 144.581 64.9235 144.371 64.954C144.075 64.997 143.813 65.1843 143.631 65.4938C143.422 65.8502 143.318 66.3877 143.403 66.9686C143.487 67.5496 143.739 68.0357 144.041 68.3178C144.304 68.5627 144.608 68.668 144.904 68.6251C145.114 68.5946 145.26 68.3993 145.23 68.1894C145.199 67.9795 145.003 67.8338 144.793 67.8643Z" fill="black"/>
<path fill-rule="evenodd" clip-rule="evenodd" d="M151.969 65.7132C152.086 65.6962 152.184 65.7928 152.279 65.9119C152.437 66.1073 152.552 66.3933 152.6 66.7191C152.647 67.0451 152.617 67.3521 152.522 67.5842C152.465 67.7252 152.398 67.8458 152.281 67.8629C152.071 67.8934 151.926 68.0885 151.956 68.2984C151.986 68.5083 152.181 68.6541 152.391 68.6236C152.687 68.5807 152.95 68.3932 153.132 68.0837C153.34 67.7274 153.445 67.1896 153.36 66.6087C153.276 66.0278 153.023 65.542 152.722 65.2596C152.459 65.0147 152.154 64.9096 151.858 64.9526C151.648 64.983 151.503 65.1781 151.534 65.3881C151.564 65.598 151.759 65.7437 151.969 65.7132Z" fill="black"/>
<path fill-rule="evenodd" clip-rule="evenodd" d="M152.281 67.8616C152.164 67.8785 152.065 67.782 151.97 67.663C151.814 67.4674 151.698 67.1815 151.651 66.8556C151.604 66.5297 151.633 66.2226 151.727 65.9908C151.784 65.8496 151.853 65.7288 151.969 65.712C152.179 65.6815 152.325 65.4863 152.295 65.2764C152.264 65.0664 152.068 64.9208 151.858 64.9513C151.562 64.9943 151.301 65.1816 151.119 65.4911C150.909 65.8475 150.806 66.3851 150.89 66.966C150.974 67.5469 151.226 68.033 151.529 68.3151C151.791 68.5601 152.095 68.6653 152.391 68.6224C152.601 68.5919 152.747 68.3966 152.717 68.1867C152.686 67.9768 152.491 67.8311 152.281 67.8616Z" fill="black"/>
<path d="M143.582 15.1958L128.649 9.01978L120.074 27.8091L135.007 33.985L143.582 15.1958Z" fill="#39D2C0"/>
<path d="M141.419 16.6039L129.085 11.5032L127.971 13.9456L140.304 19.0463L141.419 16.6039Z" fill="white"/>
<path fill-rule="evenodd" clip-rule="evenodd" d="M128.638 16.115C129.158 16.34 129.408 16.927 129.191 17.4279C128.974 17.9287 128.375 18.1484 127.855 17.9234L127.703 18.276C128.42 18.5866 129.244 18.2723 129.543 17.5804C129.843 16.8885 129.508 16.0729 128.791 15.7623L128.638 16.115Z" fill="white"/>
<path fill-rule="evenodd" clip-rule="evenodd" d="M127.855 17.9243C127.336 17.6993 127.086 17.1123 127.303 16.6114C127.519 16.1105 128.118 15.8909 128.638 16.1159L128.791 15.7633C128.072 15.4522 127.249 15.7665 126.949 16.4584C126.65 17.1503 126.984 17.9659 127.703 18.277L127.855 17.9243Z" fill="white"/>
<path fill-rule="evenodd" clip-rule="evenodd" d="M127.328 19.1431C127.847 19.3681 128.097 19.9551 127.88 20.456C127.663 20.9568 127.064 21.1764 126.545 20.9514L126.392 21.3041C127.11 21.6147 127.933 21.3003 128.233 20.6085C128.532 19.9166 128.198 19.101 127.48 18.7904L127.328 19.1431Z" fill="white"/>
<path fill-rule="evenodd" clip-rule="evenodd" d="M126.545 20.9524C126.025 20.7274 125.775 20.1403 125.992 19.6395C126.209 19.1386 126.808 18.919 127.328 19.144L127.48 18.7913C126.762 18.4803 125.938 18.7946 125.639 19.4865C125.339 20.1783 125.674 20.994 126.392 21.305L126.545 20.9524Z" fill="white"/>
<path fill-rule="evenodd" clip-rule="evenodd" d="M126.017 22.1713C126.537 22.3963 126.787 22.9833 126.57 23.4842C126.353 23.985 125.754 24.2046 125.234 23.9796L125.082 24.3323C125.799 24.6429 126.623 24.3285 126.922 23.6367C127.222 22.9448 126.887 22.1292 126.17 21.8186L126.017 22.1713Z" fill="white"/>
<path fill-rule="evenodd" clip-rule="evenodd" d="M125.234 23.9806C124.714 23.7556 124.465 23.1685 124.681 22.6677C124.898 22.1668 125.497 21.9472 126.017 22.1722L126.17 21.8195C125.451 21.5085 124.627 21.8228 124.328 22.5147C124.028 23.2065 124.363 24.0222 125.082 24.3332L125.234 23.9806Z" fill="white"/>
<path fill-rule="evenodd" clip-rule="evenodd" d="M124.706 25.1993C125.226 25.4243 125.476 26.0114 125.259 26.5122C125.042 27.0131 124.443 27.2327 123.923 27.0077L123.771 27.3604C124.488 27.6709 125.312 27.3566 125.611 26.6647C125.911 25.9729 125.576 25.1572 124.859 24.8467L124.706 25.1993Z" fill="white"/>
<path fill-rule="evenodd" clip-rule="evenodd" d="M123.924 27.0086C123.404 26.7836 123.154 26.1966 123.371 25.6957C123.588 25.1949 124.187 24.9753 124.706 25.2003L124.859 24.8476C124.14 24.5366 123.317 24.8509 123.017 25.5427C122.718 26.2346 123.052 27.0502 123.771 27.3613L123.924 27.0086Z" fill="white"/>
<path fill-rule="evenodd" clip-rule="evenodd" d="M131.701 17.4395C132.22 17.6644 132.47 18.2515 132.253 18.7523C132.037 19.2532 131.438 19.4728 130.918 19.2478L130.765 19.6005C131.483 19.9111 132.306 19.5967 132.606 18.9049C132.905 18.213 132.571 17.3973 131.853 17.0868L131.701 17.4395Z" fill="white"/>
<path fill-rule="evenodd" clip-rule="evenodd" d="M130.918 19.2488C130.398 19.0238 130.148 18.4367 130.365 17.9359C130.582 17.435 131.181 17.2154 131.701 17.4404L131.853 17.0877C131.135 16.7767 130.311 17.091 130.012 17.7828C129.712 18.4747 130.047 19.2904 130.765 19.6014L130.918 19.2488Z" fill="white"/>
<path fill-rule="evenodd" clip-rule="evenodd" d="M130.39 20.4675C130.91 20.6925 131.16 21.2796 130.943 21.7804C130.726 22.2813 130.127 22.5009 129.607 22.2759L129.454 22.6286C130.172 22.9391 130.996 22.6248 131.295 21.9329C131.595 21.2411 131.26 20.4254 130.543 20.1149L130.39 20.4675Z" fill="white"/>
<path fill-rule="evenodd" clip-rule="evenodd" d="M129.607 22.2768C129.087 22.0518 128.838 21.4648 129.054 20.9639C129.271 20.4631 129.87 20.2435 130.39 20.4685L130.543 20.1158C129.824 19.8047 129 20.1191 128.701 20.8109C128.401 21.5028 128.736 22.3184 129.454 22.6295L129.607 22.2768Z" fill="white"/>
<path fill-rule="evenodd" clip-rule="evenodd" d="M129.079 23.4957C129.599 23.7207 129.849 24.3078 129.632 24.8086C129.415 25.3095 128.816 25.5291 128.297 25.3041L128.144 25.6568C128.861 25.9673 129.685 25.653 129.985 24.9611C130.284 24.2693 129.95 23.4536 129.232 23.1431L129.079 23.4957Z" fill="white"/>
<path fill-rule="evenodd" clip-rule="evenodd" d="M128.297 25.305C127.777 25.08 127.527 24.493 127.744 23.9921C127.961 23.4913 128.56 23.2717 129.079 23.4967L129.232 23.144C128.513 22.8329 127.69 23.1472 127.39 23.8391C127.091 24.531 127.425 25.3466 128.144 25.6577L128.297 25.305Z" fill="white"/>
<path fill-rule="evenodd" clip-rule="evenodd" d="M127.769 26.5238C128.288 26.7488 128.538 27.3358 128.321 27.8367C128.105 28.3376 127.506 28.5572 126.986 28.3322L126.833 28.6848C127.551 28.9954 128.374 28.6811 128.674 27.9892C128.973 27.2973 128.639 26.4817 127.921 26.1711L127.769 26.5238Z" fill="white"/>
<path fill-rule="evenodd" clip-rule="evenodd" d="M126.986 28.3331C126.466 28.1081 126.216 27.5211 126.433 27.0202C126.65 26.5194 127.249 26.2997 127.769 26.5247L127.921 26.1721C127.203 25.861 126.379 26.1753 126.08 26.8672C125.78 27.5591 126.115 28.3747 126.833 28.6858L126.986 28.3331Z" fill="white"/>
<path fill-rule="evenodd" clip-rule="evenodd" d="M134.763 18.7666C135.283 18.9916 135.533 19.5786 135.316 20.0795C135.099 20.5803 134.5 20.8 133.98 20.575L133.828 20.9276C134.545 21.2382 135.369 20.9239 135.668 20.232C135.968 19.5401 135.633 18.7245 134.916 18.4139L134.763 18.7666Z" fill="white"/>
<path fill-rule="evenodd" clip-rule="evenodd" d="M133.98 20.5759C133.46 20.3509 133.211 19.7639 133.427 19.263C133.644 18.7622 134.243 18.5425 134.763 18.7675L134.916 18.4149C134.197 18.1038 133.373 18.4181 133.074 19.11C132.774 19.8019 133.109 20.6175 133.828 20.9286L133.98 20.5759Z" fill="white"/>
<path fill-rule="evenodd" clip-rule="evenodd" d="M133.452 21.7947C133.972 22.0197 134.222 22.6067 134.005 23.1076C133.788 23.6084 133.189 23.828 132.67 23.603L132.517 23.9557C133.234 24.2663 134.058 23.952 134.358 23.2601C134.657 22.5682 134.323 21.7526 133.605 21.442L133.452 21.7947Z" fill="white"/>
<path fill-rule="evenodd" clip-rule="evenodd" d="M132.67 23.604C132.15 23.379 131.9 22.7919 132.117 22.2911C132.334 21.7902 132.933 21.5706 133.452 21.7956L133.605 21.4429C132.887 21.1319 132.063 21.4462 131.763 22.1381C131.464 22.8299 131.798 23.6456 132.517 23.9566L132.67 23.604Z" fill="white"/>
<path fill-rule="evenodd" clip-rule="evenodd" d="M132.142 24.8228C132.661 25.0477 132.911 25.6348 132.694 26.1356C132.478 26.6365 131.879 26.8561 131.359 26.6311L131.206 26.9838C131.924 27.2944 132.747 26.98 133.047 26.2882C133.346 25.5963 133.012 24.7807 132.294 24.4701L132.142 24.8228Z" fill="white"/>
<path fill-rule="evenodd" clip-rule="evenodd" d="M131.359 26.6321C130.839 26.4071 130.589 25.82 130.806 25.3192C131.023 24.8183 131.622 24.5987 132.142 24.8237L132.294 24.471C131.576 24.16 130.752 24.4743 130.453 25.1661C130.153 25.858 130.488 26.6737 131.206 26.9847L131.359 26.6321Z" fill="white"/>
<path fill-rule="evenodd" clip-rule="evenodd" d="M130.831 27.8483C131.351 28.0733 131.601 28.6603 131.384 29.1612C131.167 29.662 130.568 29.8816 130.048 29.6566L129.896 30.0093C130.613 30.3199 131.437 30.0055 131.736 29.3137C132.036 28.6218 131.701 27.8062 130.984 27.4956L130.831 27.8483Z" fill="white"/>
<path fill-rule="evenodd" clip-rule="evenodd" d="M130.048 29.6576C129.529 29.4326 129.279 28.8455 129.496 28.3447C129.712 27.8438 130.311 27.6242 130.831 27.8492L130.984 27.4965C130.265 27.1855 129.442 27.4998 129.142 28.1917C128.843 28.8835 129.177 29.6992 129.896 30.0102L130.048 29.6576Z" fill="white"/>
<path fill-rule="evenodd" clip-rule="evenodd" d="M137.825 20.0911C138.345 20.3161 138.595 20.9031 138.378 21.404C138.161 21.9048 137.562 22.1244 137.043 21.8994L136.89 22.2521C137.607 22.5627 138.431 22.2483 138.73 21.5565C139.03 20.8646 138.695 20.049 137.978 19.7384L137.825 20.0911Z" fill="white"/>
<path fill-rule="evenodd" clip-rule="evenodd" d="M137.043 21.9004C136.523 21.6754 136.273 21.0883 136.49 20.5875C136.707 20.0866 137.306 19.867 137.825 20.092L137.978 19.7393C137.259 19.4283 136.436 19.7426 136.136 20.4345C135.837 21.1263 136.171 21.942 136.89 22.253L137.043 21.9004Z" fill="white"/>
<path fill-rule="evenodd" clip-rule="evenodd" d="M136.515 23.1191C137.035 23.3441 137.284 23.9312 137.068 24.432C136.851 24.9329 136.252 25.1525 135.732 24.9275L135.579 25.2802C136.297 25.5907 137.12 25.2764 137.42 24.5845C137.719 23.8927 137.385 23.077 136.667 22.7665L136.515 23.1191Z" fill="white"/>
<path fill-rule="evenodd" clip-rule="evenodd" d="M135.732 24.9284C135.212 24.7034 134.962 24.1164 135.179 23.6155C135.396 23.1147 135.995 22.8951 136.515 23.1201L136.667 22.7674C135.949 22.4564 135.125 22.7707 134.826 23.4625C134.526 24.1544 134.861 24.97 135.579 25.2811L135.732 24.9284Z" fill="white"/>
<path fill-rule="evenodd" clip-rule="evenodd" d="M135.204 26.1472C135.724 26.3722 135.974 26.9593 135.757 27.4601C135.54 27.961 134.941 28.1806 134.421 27.9556L134.269 28.3083C134.986 28.6188 135.81 28.3045 136.109 27.6126C136.409 26.9207 136.074 26.1051 135.357 25.7946L135.204 26.1472Z" fill="white"/>
<path fill-rule="evenodd" clip-rule="evenodd" d="M134.421 27.9565C133.902 27.7315 133.652 27.1445 133.869 26.6436C134.085 26.1428 134.684 25.9232 135.204 26.1481L135.357 25.7955C134.638 25.4844 133.815 25.7987 133.515 26.4906C133.216 27.1825 133.55 27.9981 134.269 28.3092L134.421 27.9565Z" fill="white"/>
<path fill-rule="evenodd" clip-rule="evenodd" d="M133.893 29.1754C134.413 29.4004 134.663 29.9875 134.446 30.4883C134.229 30.9892 133.63 31.2088 133.111 30.9838L132.958 31.3365C133.675 31.647 134.499 31.3327 134.799 30.6408C135.098 29.9489 134.764 29.1333 134.046 28.8228L133.893 29.1754Z" fill="white"/>
<path fill-rule="evenodd" clip-rule="evenodd" d="M133.111 30.9847C132.591 30.7597 132.341 30.1727 132.558 29.6718C132.775 29.171 133.374 28.9514 133.894 29.1763L134.046 28.8237C133.328 28.5126 132.504 28.8269 132.204 29.5188C131.905 30.2107 132.239 31.0263 132.958 31.3374L133.111 30.9847Z" fill="white"/>
<path d="M223.845 84.1697H52.1207V89.0312H223.845V84.1697Z" fill="black"/>
<path fill-rule="evenodd" clip-rule="evenodd" d="M175.107 81.5915H177.296V80.6742H180.714V81.5915H183.044V80.6742H186.462V81.5915H188.794V80.6742H192.212V81.5915H192.94C193.274 81.5915 193.594 81.7247 193.831 81.9617C194.067 82.1974 194.2 82.5177 194.2 82.8521V84.1306H169.439C169.439 84.1306 169.439 83.4901 169.439 82.8521C169.439 82.5177 169.572 82.1974 169.808 81.9617C170.045 81.7247 170.365 81.5915 170.7 81.5915H171.689V80.6742H175.107V81.5915Z" fill="#D2D3D5"/>
<path d="M90.3832 81.0802H60.3222V84.5104H90.3832V81.0802Z" fill="white"/>
<path fill-rule="evenodd" clip-rule="evenodd" d="M76.5841 80.5167V81.5416H61.0048V83.7464H76.5841V84.7713H60.4923C60.2094 84.7713 59.9799 84.542 59.9799 84.2589V81.0292C59.9799 80.746 60.2094 80.5167 60.4923 80.5167H76.5841Z" fill="black"/>
<path fill-rule="evenodd" clip-rule="evenodd" d="M76.5841 80.5167H90.8191C91.1022 80.5167 91.3315 80.746 91.3315 81.0292V84.2589C91.3315 84.542 91.1022 84.7713 90.8191 84.7713H76.5841C76.1073 84.2691 76.2896 83.9886 76.5841 83.7464H90.3067V81.5416H76.5841C76.3899 81.1637 76.3423 80.8127 76.5841 80.5167Z" fill="black"/>
<path fill-rule="evenodd" clip-rule="evenodd" d="M78.4455 81.1849L78.5293 84.4031C78.5367 84.6862 78.7721 84.9091 79.0549 84.9027C79.3376 84.895 79.5612 84.6593 79.5539 84.3762L79.47 81.158C79.4625 80.8762 79.2271 80.652 78.9443 80.6597C78.6616 80.6674 78.438 80.9031 78.4455 81.1849ZM84.8799 79.686V84.2058C84.8799 84.4889 85.1094 84.7182 85.3923 84.7182C85.675 84.7182 85.9047 84.4889 85.9047 84.2058V79.686C85.9047 79.4029 85.675 79.1736 85.3923 79.1736C85.1094 79.1736 84.8799 79.4029 84.8799 79.686ZM81.722 79.7603V83.915C81.722 84.1981 81.9516 84.4274 82.2345 84.4274C82.5174 84.4274 82.7469 84.1981 82.7469 83.915V79.7603C82.7469 79.4772 82.5174 79.2479 82.2345 79.2479C81.9516 79.2479 81.722 79.4772 81.722 79.7603ZM87.8918 79.7309V83.8061C87.8918 84.0879 88.1211 84.3185 88.4042 84.3185C88.6873 84.3185 88.9166 84.0879 88.9166 83.8061V79.7309C88.9166 79.449 88.6873 79.2184 88.4042 79.2184C88.1211 79.2184 87.8918 79.449 87.8918 79.7309Z" fill="black"/>
<g filter="url(#filter0_d_1_12982)">
<path d="M121.534 84.235H121.434H95.6153H95.5153V84.135H95.6153C95.5153 84.135 95.5153 84.1349 95.5153 84.1348V84.1342V84.1332V84.1319V84.1301V84.128V84.1255V84.1226V84.1194V84.1157V84.1117V84.1073V84.1026V84.0974V84.0919V84.086V84.0798V84.0732V84.0662V84.0588V84.0511V84.043V84.0346V84.0258V84.0166V84.0071V83.9972V83.987V83.9764V83.9654V83.9541V83.9425V83.9305V83.9181V83.9054V83.8924V83.879V83.8652V83.8512V83.8367V83.822V83.8069V83.7914V83.7756V83.7595V83.7431V83.7263V83.7092V83.6917V83.6739V83.6558V83.6374V83.6186V83.5995V83.5801V83.5604V83.5403V83.5199V83.4993V83.4782V83.4569V83.4352V83.4133V83.391V83.3684V83.3455V83.3223V83.2988V83.2749V83.2508V83.2264V83.2016V83.1766V83.1512V83.1256V83.0996V83.0734V83.0468V83.02V82.9928V82.9654V82.9377V82.9097V82.8814V82.8528V82.8239V82.7947V82.7653V82.7356V82.7055V82.6752V82.6447V82.6138V82.5827V82.5513V82.5196V82.4876V82.4554V82.4229V82.3901V82.3571V82.3237V82.2902V82.2563V82.2222V82.1878V82.1532V82.1183V82.0831V82.0477V82.012V81.9761V81.9399V81.9035V81.8668V81.8298V81.7926V81.7552V81.7175V81.6795V81.6413V81.6029V81.5642V81.5253V81.4862V81.4468V81.4071V81.3673V81.3271V81.2868V81.2462V81.2054V81.1644V81.1231V81.0816V81.0399V80.9979V80.9557V80.9133V80.8707V80.8278V80.7847V80.7415V80.6979V80.6542V80.6103V80.5661V80.5217V80.4772V80.4324V80.3874V80.3421V80.2967V80.2511V80.2053V80.1592V80.113V80.0665V80.0199V79.9731V79.926V79.8788V79.8313V79.7837V79.7359V79.6879V79.6397V79.5913V79.5427V79.4939V79.445V79.3958V79.3465V79.297V79.2473V79.1975V79.1474V79.0972V79.0468V78.9962V78.9454V78.8945V78.8434V78.7922V78.7407V78.6891V78.6373V78.5854V78.5333V78.481V78.4286V78.376V78.3233V78.2704V78.2173V78.1641V78.1107V78.0572V78.0035V77.9496V77.8957V77.8415V77.7872V77.7328V77.6782V77.6235V77.5686V77.5136V77.4585V77.4032V77.3478V77.2922V77.2365V77.1807V77.1247V77.0686V77.0124V76.956V76.8995V76.8429V76.7862V76.7293V76.6723V76.6152V76.5579V76.5006V76.4431V76.3855V76.3278V76.27V76.212V76.154V76.0958V76.0375V75.9791V75.9206V75.862V75.8033V75.7445V75.6855V75.6265V75.5674V75.5082V75.4488V75.3894V75.3299V75.2703V75.2106V75.1507V75.0908V75.0309V74.9708V74.9106V74.8504V74.79V74.7296V74.6691V74.6085V74.5478V74.4871V74.4262V74.3653V74.3043V74.2433V74.1821V74.1209V74.0596V73.9983V73.9369V73.8754V73.8138V73.7522V73.6905V73.6288V73.567V73.5051V73.4432V73.3812V73.3191V73.257V73.1948V73.1326V73.0704V73.008V72.9457V72.8833V72.8208V72.7583V72.6957V72.6331V72.5705V72.5078V72.445V72.3823V72.3195V72.2566V72.1937V72.1308V72.0679V72.0049V71.9419V71.8788V71.8158V71.7527V71.6895V71.6264V71.5632V71.5V71.4368V71.3735V71.3103V71.247V71.1837V71.1204V71.0571V70.9937V70.9304V70.867V70.8036V70.7403V70.6769V70.6135V70.5501V70.4867V70.4233V70.3598V70.2964V70.233V70.1696V70.1062V70.0428V69.9794V69.916V69.8527V69.7893V69.7259V69.6626V69.5993V69.5359V69.4726V69.4093V69.3461V69.2828V69.2196V69.1564V69.0932V69.03V68.9669V68.9038V68.8407V68.7776V68.7146V68.6516V68.5886V68.5257V68.4628V68.3999V68.3371V68.2743V68.2115V68.1488V68.0862V68.0235V67.961V67.8984V67.8359V67.7735V67.7111V67.6487V67.5864V67.5242V67.462V67.3999V67.3378V67.2758V67.2138V67.1519V67.09V67.0283V66.9665V66.9049V66.8433V66.7818V66.7203V66.6589V66.5976V66.5363V66.4752V66.4141V66.353V66.2921V66.2312V66.1704V66.1097V66.049V65.9885V65.928V65.8676V65.8073V65.7471V65.687V65.6269V65.567V65.5071V65.4474V65.3877V65.3281V65.2687V65.2093V65.15V65.0908V65.0317V64.9727V64.9139V64.8551V64.7964V64.7379V64.6794V64.6211V64.5628V64.5047V64.4467V64.3888V64.331V64.2734V64.2158V64.1584V64.1011V64.0439V63.9868V63.9299V63.8731V63.8164V63.7598V63.7034V63.6471V63.5909V63.5349V63.479V63.4232V63.3676V63.3121V63.2567V63.2015V63.1464V63.0915V63.0367V62.982V62.9275V62.8731V62.8189V62.7648V62.7109V62.6571V62.6035V62.5501V62.4968V62.4436V62.3906V62.3378V62.2851V62.2326V62.1802V62.128V62.076V62.0241V61.9724V61.9209V61.8695V61.8184V61.7673V61.7165V61.6658V61.6153V61.565V61.5148V61.4649V61.4151V61.3655V61.3161V61.2668V61.2178V61.1689V61.1202V61.0717V61.0234V60.9753V60.9274V60.8796V60.8321V60.7847V60.7376V60.6906V60.6439V60.5973V60.551V60.5048V60.4589V60.4131V60.3676V60.3223V60.2771V60.2322V60.1875V60.143V60.0988V60.0547V60.0109V59.9672V59.9238V59.8806V59.8376C95.5153 58.9391 95.8731 58.0774 96.508 57.4421L96.508 57.4421C96.7535 57.1969 97.0322 56.9932 97.3339 56.8354H96.9079C96.348 56.8354 95.8932 56.3807 95.8932 55.8207C95.8932 55.2606 96.348 54.806 96.9079 54.806H119.658C120.219 54.806 120.673 55.2607 120.673 55.8207C120.673 56.3623 120.249 56.8055 119.713 56.834C120.015 56.9919 120.295 57.196 120.541 57.4421C120.541 57.4421 120.541 57.4421 120.541 57.4422M121.534 84.235L121.434 59.8376C121.434 58.9657 121.088 58.1294 120.47 57.5128L120.541 57.4422M121.534 84.235V84.135V59.8376C121.534 58.9393 121.177 58.0776 120.541 57.4422M121.534 84.235L120.541 57.4422" fill="#FFF4E5" stroke="black" stroke-width="0.2"/>
<path d="M119.268 56.6407L119.252 56.6351H119.235H97.815H97.798L97.782 56.6407C97.3067 56.8073 96.871 57.0792 96.5081 57.4417L96.508 57.4418C96.3641 57.5859 96.2348 57.7415 96.12 57.9065L96.0066 58.0696L96.2052 58.0635L120.153 57.3307L120.433 57.3221L120.211 57.1515C119.924 56.9315 119.606 56.7593 119.268 56.6407Z" fill="#39D2C0" stroke="black" stroke-width="0.2"/>
<path d="M104.715 60.971L96.3924 63.4937L100.765 77.9213L109.088 75.3987L104.715 60.971Z" fill="#83E8DC"/>
<path fill-rule="evenodd" clip-rule="evenodd" d="M102.877 67.9126C103.853 67.9126 104.646 68.7056 104.646 69.6823C104.646 70.659 103.853 71.4519 102.877 71.4519C102.664 71.4519 102.492 71.6241 102.492 71.8363C102.492 72.0484 102.664 72.2206 102.877 72.2206C104.277 72.2206 105.415 71.0832 105.415 69.6823C105.415 68.2814 104.277 67.1439 102.877 67.1439C102.664 67.1439 102.492 67.3162 102.492 67.5283C102.492 67.7404 102.664 67.9126 102.877 67.9126Z" fill="#39D2C0"/>
<path fill-rule="evenodd" clip-rule="evenodd" d="M102.877 71.4519C101.899 71.4519 101.107 70.659 101.107 69.6823C101.107 68.7056 101.899 67.9126 102.877 67.9126C103.088 67.9126 103.261 67.7404 103.261 67.5283C103.261 67.3162 103.088 67.1439 102.877 67.1439C101.475 67.1439 100.339 68.2814 100.339 69.6823C100.339 71.0832 101.475 72.2206 102.877 72.2206C103.088 72.2206 103.261 72.0484 103.261 71.8363C103.261 71.6241 103.088 71.4519 102.877 71.4519Z" fill="#39D2C0"/>
<path fill-rule="evenodd" clip-rule="evenodd" d="M103.695 77.033L103.032 75.0018C102.945 74.733 103.092 74.4435 103.36 74.3557C103.629 74.268 103.918 74.4149 104.007 74.6838L104.677 76.7357L103.695 77.033ZM105.075 76.6147L104.628 75.1693C104.545 74.8991 104.696 74.6118 104.966 74.5282C105.237 74.4447 105.524 74.5961 105.607 74.8663L106.056 76.3174L105.075 76.6147ZM101.819 61.8488L102.542 64.1886C102.626 64.4588 102.474 64.746 102.204 64.8295C101.934 64.9132 101.647 64.7616 101.564 64.4914L100.837 62.1461L101.819 61.8488ZM100.213 62.3352L100.822 64.1091C100.914 64.3766 100.771 64.6684 100.503 64.7601C100.235 64.8518 99.9443 64.7091 99.852 64.4415L99.232 62.6327L100.213 62.3352Z" fill="#39D2C0"/>
<path d="M121.035 69.3963L112.633 67.1493L108.738 81.7133L117.139 83.9603L121.035 69.3963Z" fill="#83E8DC"/>
<path fill-rule="evenodd" clip-rule="evenodd" d="M115.81 74.3229C116.64 74.8379 116.895 75.9299 116.38 76.7597C115.865 77.5895 114.773 77.8448 113.944 77.3298C113.763 77.2177 113.526 77.2734 113.414 77.4536C113.302 77.6339 113.357 77.8707 113.538 77.9829C114.728 78.7215 116.294 78.3553 117.033 77.1651C117.772 75.975 117.406 74.4085 116.216 73.6699C116.035 73.5577 115.799 73.6136 115.687 73.7937C115.575 73.9739 115.63 74.2108 115.81 74.3229Z" fill="#39D2C0"/>
<path fill-rule="evenodd" clip-rule="evenodd" d="M113.944 77.3309C113.113 76.8153 112.859 75.7241 113.374 74.8943C113.889 74.0645 114.98 73.8084 115.81 74.324C115.99 74.4355 116.228 74.3805 116.34 74.2002C116.452 74.0201 116.396 73.7825 116.216 73.671C115.025 72.9317 113.46 73.2987 112.721 74.4888C111.982 75.679 112.347 77.2446 113.538 77.9839C113.718 78.0954 113.955 78.0404 114.067 77.8601C114.179 77.6799 114.123 77.4424 113.944 77.3309Z" fill="#39D2C0"/>
<path fill-rule="evenodd" clip-rule="evenodd" d="M111.695 82.5024L112.203 80.4267C112.271 80.1524 112.549 79.9842 112.823 80.0509C113.097 80.1182 113.266 80.3958 113.199 80.6709L112.686 82.7675L111.695 82.5024ZM113.088 82.8749L113.471 81.411C113.543 81.1375 113.823 80.9733 114.096 81.0448C114.37 81.1164 114.534 81.3964 114.462 81.6699L114.079 83.1399L113.088 82.8749ZM118.11 68.6124L117.491 70.9821C117.419 71.2555 117.139 71.4198 116.866 71.3482C116.592 71.2767 116.428 70.9965 116.5 70.7231L117.12 68.3474L118.11 68.6124ZM116.49 68.1789L116.071 70.007C116.009 70.2829 115.733 70.4551 115.457 70.3918C115.181 70.3285 115.009 70.0538 115.072 69.7778L115.5 67.914L116.49 68.1789Z" fill="#39D2C0"/>
<path d="M112.915 65.6384C114.629 65.6384 116.018 64.2491 116.018 62.5353C116.018 60.8215 114.629 59.4321 112.915 59.4321C111.201 59.4321 109.812 60.8215 109.812 62.5353C109.812 64.2491 111.201 65.6384 112.915 65.6384Z" fill="#996BFF"/>
<path fill-rule="evenodd" clip-rule="evenodd" d="M112.955 60.5571C114.077 60.5571 114.988 61.4682 114.988 62.5905C114.988 63.7128 114.077 64.6239 112.955 64.6239C112.847 64.6239 112.759 64.7115 112.759 64.8192C112.759 64.927 112.847 65.0145 112.955 65.0145C114.292 65.0145 115.378 63.9283 115.378 62.5905C115.378 61.2527 114.292 60.1665 112.955 60.1665C112.847 60.1665 112.759 60.254 112.759 60.3618C112.759 60.4696 112.847 60.5571 112.955 60.5571Z" fill="#CAB2FF"/>
<path fill-rule="evenodd" clip-rule="evenodd" d="M112.955 64.6239C111.833 64.6239 110.922 63.7128 110.922 62.5905C110.922 61.4682 111.833 60.5571 112.955 60.5571C113.062 60.5571 113.149 60.4696 113.149 60.3618C113.149 60.254 113.062 60.1665 112.955 60.1665C111.617 60.1665 110.531 61.2527 110.531 62.5905C110.531 63.9283 111.617 65.0145 112.955 65.0145C113.062 65.0145 113.149 64.927 113.149 64.8192C113.149 64.7115 113.062 64.6239 112.955 64.6239Z" fill="#CAB2FF"/>
<path fill-rule="evenodd" clip-rule="evenodd" d="M112.453 65.6033L112.481 64.8613C112.485 64.7536 112.576 64.6695 112.684 64.6738C112.792 64.6779 112.876 64.7687 112.872 64.8764L112.842 65.6368C112.71 65.6337 112.58 65.6224 112.453 65.6033ZM113.589 65.5639L113.398 64.8059C113.373 64.7013 113.436 64.5951 113.541 64.5688C113.644 64.5426 113.751 64.6061 113.778 64.7105L113.965 65.4551C113.843 65.4991 113.717 65.5354 113.589 65.5639ZM110.334 64.2572L110.918 63.7958C111.003 63.729 111.126 63.7434 111.192 63.828C111.259 63.9125 111.245 64.0354 111.16 64.1023L110.571 64.5676C110.486 64.4693 110.407 64.3657 110.334 64.2572ZM109.939 63.4184L110.67 63.0227C110.764 62.9713 110.884 63.0065 110.935 63.1013C110.986 63.196 110.95 63.3146 110.855 63.366L110.076 63.7887C110.023 63.669 109.978 63.5454 109.939 63.4184ZM115.984 62.9927L115.279 62.96C115.171 62.955 115.088 62.8636 115.093 62.7559C115.098 62.6482 115.189 62.5649 115.297 62.5698L116.017 62.6032C116.014 62.7352 116.003 62.8651 115.984 62.9927ZM115.086 60.3181C115.179 60.4095 115.266 60.5066 115.348 60.6091L114.776 61.1971C114.7 61.2743 114.577 61.2761 114.5 61.2009C114.422 61.1257 114.421 61.002 114.496 60.9247L115.086 60.3181ZM111.369 59.8439L111.876 60.6015C111.937 60.6911 111.912 60.8124 111.823 60.8725C111.733 60.9324 111.611 60.9085 111.552 60.8189L111.044 60.0597C111.146 59.9812 111.255 59.9091 111.369 59.8439ZM113.184 59.4429C113.315 59.4541 113.445 59.4736 113.571 59.5009L113.495 60.2762C113.483 60.3836 113.387 60.462 113.281 60.4512C113.173 60.4406 113.095 60.3449 113.105 60.2377L113.184 59.4429Z" fill="#CAB2FF"/>
<path d="M104.529 69.0475C104.335 70.7503 105.557 72.2883 107.26 72.4827C108.963 72.6772 110.501 71.4545 110.695 69.7517C110.89 68.0489 109.667 66.5109 107.964 66.3165C106.262 66.122 104.724 67.3447 104.529 69.0475Z" fill="#996BFF"/>
<path fill-rule="evenodd" clip-rule="evenodd" d="M109.572 69.6635C109.445 70.7776 108.436 71.5793 107.321 71.4519C106.206 71.3246 105.404 70.3161 105.531 69.2021C105.544 69.0949 105.467 68.9968 105.36 68.9845C105.253 68.9723 105.155 69.0506 105.143 69.1578C104.992 70.4862 105.948 71.6882 107.277 71.8401C108.606 71.9918 109.808 71.0363 109.96 69.7078C109.972 69.6006 109.895 69.5025 109.788 69.4903C109.681 69.4781 109.584 69.5563 109.572 69.6635Z" fill="#CAB2FF"/>
<path fill-rule="evenodd" clip-rule="evenodd" d="M105.531 69.2015C105.659 68.0861 106.667 67.2844 107.782 67.4118C108.897 67.5391 109.699 68.5476 109.572 69.663C109.56 69.7688 109.637 69.8656 109.744 69.8778C109.851 69.89 109.948 69.8131 109.96 69.7073C110.112 68.3775 109.156 67.1755 107.827 67.0237C106.497 66.8719 105.295 67.8274 105.143 69.1572C105.131 69.263 105.208 69.3598 105.315 69.3721C105.422 69.3843 105.519 69.3074 105.531 69.2015Z" fill="#CAB2FF"/>
<path fill-rule="evenodd" clip-rule="evenodd" d="M104.616 68.5924L105.35 68.7046C105.456 68.7206 105.529 68.8205 105.513 68.927C105.497 69.0347 105.397 69.1071 105.29 69.0911L104.538 68.9755C104.556 68.8448 104.582 68.7162 104.616 68.5924ZM104.526 69.7259L105.301 69.6222C105.407 69.6086 105.506 69.683 105.52 69.7904C105.534 69.8965 105.459 69.9949 105.352 70.0098L104.591 70.1112C104.561 69.9853 104.54 69.8564 104.526 69.7259ZM106.193 66.6398L106.586 67.2726C106.642 67.3642 106.614 67.4848 106.522 67.5414C106.431 67.5979 106.31 67.57 106.254 67.4784L105.858 66.8401C105.965 66.7672 106.077 66.7001 106.193 66.6398ZM107.072 66.343L107.382 67.1134C107.422 67.2134 107.374 67.3278 107.274 67.368C107.174 67.4081 107.06 67.359 107.02 67.259L106.688 66.4372C106.813 66.3973 106.941 66.3668 107.072 66.343ZM106.809 72.3965L106.921 71.7002C106.938 71.5938 107.039 71.5215 107.145 71.5388C107.251 71.5561 107.324 71.6559 107.307 71.7623L107.192 72.4738C107.061 72.4563 106.933 72.4301 106.809 72.3965ZM109.568 71.8078C109.467 71.8903 109.36 71.9658 109.249 72.0357L108.73 71.4C108.662 71.3161 108.674 71.1937 108.757 71.1259C108.841 71.0568 108.964 71.0695 109.032 71.1534L109.568 71.8078ZM110.461 68.1691L109.651 68.5871C109.555 68.6368 109.437 68.5988 109.387 68.5029C109.338 68.407 109.376 68.2888 109.471 68.2404L110.283 67.8213C110.35 67.932 110.409 68.0484 110.461 68.1691ZM110.653 70.0182C110.627 70.1467 110.593 70.2731 110.552 70.396L109.79 70.2316C109.685 70.208 109.618 70.1036 109.641 69.9992C109.663 69.8935 109.767 69.8267 109.873 69.8491L110.653 70.0182Z" fill="#CAB2FF"/>
<path d="M98.7215 82.9547C99.9774 84.1208 101.941 84.0479 103.107 82.792C104.273 81.536 104.2 79.5726 102.944 78.4065C101.688 77.2404 99.7249 77.3132 98.5588 78.5691C97.3927 79.8251 97.4655 81.7885 98.7215 82.9547Z" fill="#996BFF"/>
<path fill-rule="evenodd" clip-rule="evenodd" d="M102.208 79.2599C103.029 80.0229 103.077 81.3104 102.314 82.1328C101.55 82.9553 100.262 83.0032 99.4406 82.2402C99.3616 82.1668 99.2369 82.1706 99.1636 82.2495C99.0903 82.3285 99.0958 82.453 99.1749 82.5265C100.155 83.4362 101.689 83.379 102.6 82.3986C103.51 81.4182 103.453 79.8834 102.474 78.9737C102.394 78.9002 102.27 78.904 102.197 78.983C102.123 79.0619 102.129 79.1865 102.208 79.2599Z" fill="#CAB2FF"/>
<path fill-rule="evenodd" clip-rule="evenodd" d="M99.4406 82.2392C98.6179 81.4753 98.5702 80.1878 99.3339 79.3653C100.098 78.5428 101.385 78.495 102.208 79.2589C102.286 79.3313 102.409 79.3267 102.483 79.2477C102.556 79.1687 102.552 79.0451 102.474 78.9726C101.493 78.0619 99.9579 78.1191 99.0477 79.0995C98.1373 80.0799 98.194 81.6147 99.1748 82.5254C99.2529 82.5979 99.3765 82.5932 99.4498 82.5142C99.5232 82.4353 99.5187 82.3116 99.4406 82.2392Z" fill="#CAB2FF"/>
<path fill-rule="evenodd" clip-rule="evenodd" d="M98.4062 82.6159L98.9317 82.0913C99.0078 82.015 99.1317 82.0153 99.2077 82.0916C99.2847 82.1687 99.2839 82.2919 99.2078 82.3683L98.6688 82.9054C98.5742 82.8134 98.4861 82.7162 98.4062 82.6159ZM99.2658 83.3602L99.6417 82.6748C99.694 82.5808 99.8123 82.5457 99.9071 82.5979C100.001 82.6492 100.036 82.7682 99.9844 82.863L99.6149 83.5359C99.4958 83.4853 99.379 83.4265 99.2658 83.3602ZM97.7693 80.1876L98.5113 80.2471C98.6188 80.2556 98.6991 80.3499 98.6904 80.4572C98.6816 80.5645 98.5877 80.6449 98.4803 80.6364L97.7318 80.5764C97.7367 80.4468 97.749 80.3169 97.7693 80.1876ZM98.0508 79.3045L98.8552 79.5114C98.9597 79.5382 99.023 79.6451 98.9961 79.7495C98.9692 79.8537 98.8622 79.9162 98.7578 79.8894L97.8994 79.6691C97.9414 79.5448 97.9926 79.4237 98.0508 79.3045ZM102.77 83.1051L102.276 82.6018C102.2 82.5249 102.202 82.4012 102.279 82.3258C102.356 82.2503 102.479 82.2512 102.554 82.328L103.059 82.8424C102.968 82.9373 102.871 83.0247 102.77 83.1051ZM103.932 80.5341C103.938 80.6646 103.936 80.7951 103.926 80.926L103.106 80.9673C102.998 80.9724 102.907 80.8901 102.902 80.7827C102.896 80.6744 102.979 80.5828 103.087 80.5776L103.932 80.5341ZM101.531 77.6578L101.387 78.5582C101.37 78.6648 101.27 78.7371 101.163 78.7201C101.057 78.7031 100.984 78.6027 101.002 78.497L101.145 77.5946C101.274 77.6067 101.403 77.628 101.531 77.6578ZM103.134 78.5991C103.222 78.6963 103.304 78.7986 103.378 78.9049L102.794 79.4207C102.713 79.4916 102.589 79.4836 102.518 79.4034C102.447 79.3224 102.454 79.1991 102.535 79.1275L103.134 78.5991Z" fill="#CAB2FF"/>
<path d="M118.145 83.9516C119.829 83.6315 120.934 82.0072 120.614 80.3235C120.294 78.6398 118.67 77.5344 116.986 77.8544C115.302 78.1745 114.197 79.7989 114.517 81.4825C114.837 83.1662 116.462 84.2716 118.145 83.9516Z" fill="#996BFF"/>
<path fill-rule="evenodd" clip-rule="evenodd" d="M117.236 78.9546C118.338 78.7452 119.403 79.4701 119.612 80.5726C119.822 81.6752 119.097 82.7404 117.996 82.9498C117.89 82.97 117.819 83.0726 117.839 83.1784C117.859 83.2843 117.963 83.3537 118.069 83.3336C119.382 83.0839 120.246 81.814 119.996 80.4996C119.746 79.1854 118.477 78.3211 117.163 78.5708C117.057 78.591 116.986 78.6935 117.007 78.7994C117.027 78.9053 117.13 78.9747 117.236 78.9546Z" fill="#CAB2FF"/>
<path fill-rule="evenodd" clip-rule="evenodd" d="M117.996 82.9478C116.893 83.1574 115.828 82.4325 115.618 81.3298C115.408 80.2273 116.133 79.1622 117.236 78.9525C117.341 78.9326 117.41 78.8303 117.39 78.7244C117.37 78.6185 117.268 78.5489 117.163 78.5687C115.848 78.8187 114.984 80.0886 115.234 81.4028C115.484 82.7172 116.754 83.5815 118.069 83.3315C118.173 83.3116 118.243 83.2093 118.223 83.1034C118.203 82.9976 118.1 82.9279 117.996 82.9478Z" fill="#CAB2FF"/>
<path fill-rule="evenodd" clip-rule="evenodd" d="M117.685 84.0033L117.574 83.2691C117.558 83.1625 117.631 83.063 117.738 83.047C117.846 83.0307 117.944 83.1044 117.961 83.211L118.074 83.9634C117.944 83.9851 117.813 83.9984 117.685 84.0033ZM118.794 83.7523L118.465 83.0433C118.42 82.9454 118.462 82.8293 118.56 82.7839C118.657 82.7387 118.774 82.7813 118.82 82.8788L119.142 83.5754C119.031 83.6413 118.915 83.7005 118.794 83.7523ZM115.352 83.0765L115.84 82.5142C115.91 82.4327 116.034 82.424 116.115 82.4946C116.196 82.5653 116.205 82.6886 116.135 82.7701L115.643 83.3372C115.541 83.2565 115.444 83.1695 115.352 83.0765ZM114.808 82.3262L115.451 81.8011C115.535 81.7329 115.658 81.7453 115.726 81.8289C115.794 81.9123 115.781 82.0355 115.698 82.1037L115.011 82.6644C114.936 82.5569 114.869 82.4438 114.808 82.3262ZM120.666 80.7792L119.968 80.8787C119.861 80.8939 119.762 80.8196 119.747 80.7129C119.732 80.6061 119.806 80.5073 119.912 80.492L120.626 80.3904C120.648 80.5205 120.661 80.6503 120.666 80.7792ZM119.284 78.3194C119.393 78.3917 119.497 78.4708 119.597 78.5562L119.144 79.2408C119.084 79.3308 118.964 79.3556 118.874 79.2961C118.783 79.2368 118.759 79.1154 118.819 79.0254L119.284 78.3194ZM115.545 78.5476L116.185 79.1972C116.26 79.2739 116.259 79.3976 116.182 79.4734C116.105 79.549 115.981 79.5482 115.907 79.4713L115.265 78.8204C115.351 78.7241 115.445 78.6329 115.545 78.5476ZM117.253 77.8146C117.384 77.8013 117.514 77.7963 117.644 77.7994L117.713 78.5754C117.722 78.6831 117.642 78.778 117.536 78.7873C117.428 78.797 117.333 78.7175 117.324 78.6103L117.253 77.8146Z" fill="#CAB2FF"/>
</g>
<path fill-rule="evenodd" clip-rule="evenodd" d="M109.901 83.7371L94.8684 109.914H88.6857C88.6857 109.914 86.786 113.973 89.6645 115.459H118.022C118.051 115.459 118.08 115.461 118.109 115.465C118.674 115.506 121.901 115.414 124.454 108.798C128.603 98.0522 132.807 91.8529 137.054 83.7371H109.901Z" fill="#E9E9EB"/>
<path d="M103.768 107.832C106.23 108.182 108.866 106.515 109.655 104.109C110.444 101.702 109.089 99.4671 106.627 99.1168C104.165 98.7664 101.529 100.433 100.74 102.84C99.9501 105.247 101.306 107.481 103.768 107.832Z" fill="white"/>
<path d="M133.707 85.1276L110.365 84.8799L109.366 86.7027L132.708 86.9504L133.707 85.1276Z" fill="#BABDC2"/>
<path d="M132.14 88.4898L108.688 88.2792L107.692 90.1037L131.143 90.3143L132.14 88.4898Z" fill="#BABDC2"/>
<path d="M130.329 92.1436L106.802 91.5316L105.776 93.3384L129.303 93.9504L130.329 92.1436Z" fill="#BABDC2"/>
<path d="M128.456 95.7607L105.052 94.7466L103.997 96.5351L127.401 97.5493L128.456 95.7607Z" fill="#BABDC2"/>
<path d="M125.933 99.5155L113.44 98.8856L112.564 100.63L125.057 101.26L125.933 99.5155Z" fill="#BABDC2"/>
<path d="M123.867 103.211L115.431 102.704L114.7 104.457L123.137 104.964L123.867 103.211Z" fill="#BABDC2"/>
<path d="M122.177 106.927L110.984 106.093L110.373 107.854L121.566 108.688L122.177 106.927Z" fill="#BABDC2"/>
<path fill-rule="evenodd" clip-rule="evenodd" d="M95.4308 108.934H115.686C115.71 108.934 115.733 108.936 115.756 108.939C115.973 108.968 116.157 109.088 116.241 109.364C116.282 109.498 116.286 109.763 116.233 110.121C116.048 111.406 115.219 114.649 118.537 115.452C118.341 115.474 118.194 115.47 118.109 115.465C118.08 115.461 118.051 115.459 118.022 115.459H116.289C116.176 115.359 116.072 115.254 115.976 115.145C114.808 113.817 114.933 111.896 115.123 110.608C115.155 110.387 115.187 110.147 115.211 109.959L94.8684 109.914L95.4308 108.934Z" fill="black"/>
<path d="M103.129 104.331C103.479 104.784 103.974 105.069 104.619 105.202C105.393 105.344 105.861 105.165 106.049 104.668C106.188 104.261 106.015 103.965 105.529 103.78C105.299 103.703 105.052 103.622 104.783 103.529C104.303 103.354 103.974 103.101 103.8 102.78C103.621 102.45 103.604 102.086 103.74 101.686C103.903 101.21 104.2 100.857 104.649 100.633C105.08 100.405 105.603 100.351 106.212 100.461C106.945 100.62 107.518 100.936 107.934 101.403L107.202 101.99C106.855 101.636 106.415 101.394 105.886 101.283C105.613 101.23 105.359 101.247 105.132 101.342C104.897 101.435 104.729 101.616 104.631 101.876C104.576 102.037 104.595 102.189 104.683 102.345C104.771 102.502 104.958 102.628 105.23 102.738C105.38 102.792 105.594 102.866 105.865 102.952C106.397 103.129 106.741 103.393 106.904 103.744C107.062 104.086 107.079 104.45 106.945 104.843C106.563 105.883 105.685 106.278 104.327 106.031C103.456 105.862 102.787 105.461 102.327 104.839L103.129 104.331Z" fill="black"/>
<path fill-rule="evenodd" clip-rule="evenodd" d="M106.383 99.7536L103.411 106.485L104.099 106.694L107.097 99.9041L106.383 99.7536Z" fill="black"/>
<path fill-rule="evenodd" clip-rule="evenodd" d="M169.642 98.1852C169.308 97.8188 168.862 97.6151 168.499 97.8534C167.226 98.69 166.357 99.5829 165.108 100.453C161.247 103.143 155.83 103.893 153.436 108.306C151.008 112.777 150.885 118.256 148.725 122.903C145.816 129.165 141.651 134.721 138.566 140.891C134.746 148.528 128.796 165.275 128.796 165.275C126.875 165.246 117.398 166.483 111.637 167.372C111.418 167.405 111.263 167.602 111.28 167.823C111.296 168.044 111.481 168.215 111.703 168.215C125.285 168.215 165.111 168.215 174.376 168.215C174.849 168.215 175.285 167.962 175.522 167.554C175.759 167.145 175.762 166.64 175.526 166.23C174.34 164.156 172.286 162.94 170 162.374C168.241 161.938 166.543 162.152 164.771 162.302C164.705 162.307 164.62 162.319 164.569 162.266C164.556 162.254 164.538 162.231 164.531 162.215C164.06 161.239 164.311 155.697 164.327 154.45C164.392 149.257 164.624 144.048 165.07 138.872C165.213 137.21 165.511 132.433 165.511 132.433C165.511 132.433 169.505 131.884 170.652 131.624C173.475 130.986 175.781 129.157 177.395 126.78C179.79 123.253 179.945 118.463 181.029 114.45C181.934 111.091 183.629 108.474 185.078 105.393C185.83 103.794 185.565 101.432 183.827 100.572C182.127 99.7302 180.345 101.489 179.275 102.614C175.871 106.199 175.697 111.131 172.789 114.686C170.726 117.206 166.565 117.668 166.565 117.668C166.565 117.668 166.437 114.595 166.565 113.742C167.207 109.472 169.614 106.757 170.594 102.828C170.877 101.69 170.717 99.3587 169.642 98.1852Z" fill="#996BFF"/>
<path fill-rule="evenodd" clip-rule="evenodd" d="M160.053 134.204C161.906 133.257 165.511 132.432 165.511 132.432C165.511 132.432 165.416 133.962 165.307 135.59C163.917 135.087 162.175 134.938 160.25 134.97C160.063 134.973 159.898 134.846 159.852 134.665C159.804 134.483 159.888 134.293 160.053 134.204Z" fill="black"/>
<path fill-rule="evenodd" clip-rule="evenodd" d="M161.89 103.896L162.713 104.502C162.941 104.67 163.262 104.621 163.43 104.393C163.598 104.166 163.549 103.845 163.321 103.677L162.499 103.071C162.271 102.903 161.95 102.952 161.782 103.179C161.615 103.407 161.662 103.728 161.89 103.896Z" fill="black"/>
<path fill-rule="evenodd" clip-rule="evenodd" d="M164.46 162.017C164.425 161.963 164.401 161.903 164.387 161.836C163.321 156.417 161.894 152.708 160.279 150.247C158.73 147.887 157.019 146.705 155.308 146.285C151.855 145.435 148.459 147.636 146.569 149.175C145.708 149.874 145.058 150.558 145.058 150.558C144.959 150.68 144.805 150.754 144.636 150.747C144.354 150.733 144.135 150.492 144.149 150.21C144.149 150.202 144.138 150.047 144.299 149.869C144.408 149.75 144.997 149.132 145.922 148.379C147.998 146.688 151.758 144.357 155.552 145.289C157.465 145.759 159.404 147.046 161.136 149.685C162.287 151.438 163.353 153.802 164.265 156.94C164.228 158.829 164.224 161.151 164.46 162.017ZM155.561 106.478C155.561 106.478 153.901 110.649 152.878 113.224C152.264 114.764 152.904 116.519 154.364 117.305C155.029 117.665 155.702 117.931 156.384 118.099C157.309 118.329 158.289 118.119 159.04 117.533C159.792 116.945 160.23 116.044 160.23 115.089C160.23 111.86 160.23 106.666 160.23 106.666C160.23 106.384 160.001 106.154 159.717 106.154C159.436 106.154 159.205 106.384 159.205 106.666C159.205 106.666 159.205 111.86 159.205 115.089C159.205 115.729 158.912 116.331 158.408 116.724C157.906 117.119 157.25 117.258 156.63 117.105C156.029 116.956 155.437 116.72 154.85 116.403C153.847 115.863 153.409 114.659 153.829 113.603C154.854 111.028 156.515 106.856 156.515 106.856C156.618 106.593 156.49 106.295 156.228 106.191C155.964 106.086 155.667 106.214 155.561 106.478ZM166.532 116.645C166.547 117.233 166.565 117.668 166.565 117.668C166.565 117.668 166.647 117.659 166.794 117.638C166.161 117.767 165.576 117.822 165.026 117.817C164.743 117.814 164.516 117.583 164.519 117.301C164.522 117.018 164.752 116.79 165.035 116.792C165.502 116.796 165.997 116.75 166.532 116.645ZM184.905 101.528C185.096 101.816 185.237 102.139 185.331 102.478C183.385 103.887 181.929 106.033 181.86 106.16C181.726 106.409 181.414 106.501 181.166 106.366C180.917 106.232 180.825 105.921 180.96 105.672C181.036 105.529 182.701 103.073 184.905 101.528ZM183.008 100.354C183.281 100.37 183.555 100.437 183.827 100.572C183.939 100.627 184.046 100.69 184.147 100.758C183.319 101.388 181.637 102.823 179.912 105.201C179.746 105.429 179.425 105.48 179.197 105.313C178.967 105.148 178.916 104.827 179.083 104.598C180.576 102.54 182.043 101.154 183.008 100.354ZM166.798 99.1384C167.33 98.7028 167.864 98.271 168.499 97.8534C168.862 97.6151 169.308 97.8188 169.642 98.1852C169.896 98.4619 170.098 98.8027 170.257 99.1781C168.802 100.689 167.194 99.4791 166.798 99.1384Z" fill="black"/>
<defs>
<filter id="filter0_d_1_12982" x="91.4153" y="54.7061" width="34.2183" height="37.6289" filterUnits="userSpaceOnUse" color-interpolation-filters="sRGB">
<feFlood flood-opacity="0" result="BackgroundImageFix"/>
<feColorMatrix in="SourceAlpha" type="matrix" values="0 0 0 0 0 0 0 0 0 0 0 0 0 0 0 0 0 0 127 0" result="hardAlpha"/>
<feOffset dy="4"/>
<feGaussianBlur stdDeviation="2"/>
<feComposite in2="hardAlpha" operator="out"/>
<feColorMatrix type="matrix" values="0 0 0 0 0 0 0 0 0 0 0 0 0 0 0 0 0 0 0.25 0"/>
<feBlend mode="normal" in2="BackgroundImageFix" result="effect1_dropShadow_1_12982"/>
<feBlend mode="normal" in="SourceGraphic" in2="effect1_dropShadow_1_12982" result="shape"/>
</filter>
<linearGradient id="paint0_linear_1_12982" x1="72.177" y1="130.095" x2="198.617" y2="55.5385" gradientUnits="userSpaceOnUse">
<stop stop-color="#996BFF"/>
<stop offset="1" stop-color="#796B99"/>
</linearGradient>
<linearGradient id="paint1_linear_1_12982" x1="30.6217" y1="40.5355" x2="-31.7738" y2="118.72" gradientUnits="userSpaceOnUse">
<stop stop-color="#996BFF"/>
</linearGradient>
<linearGradient id="paint2_linear_1_12982" x1="214.197" y1="57.0484" x2="252.731" y2="94.5727" gradientUnits="userSpaceOnUse">
<stop stop-color="#CAB2FF"/>
</linearGradient>
<linearGradient id="paint3_linear_1_12982" x1="240.557" y1="127.199" x2="177.708" y2="84.8368" gradientUnits="userSpaceOnUse">
<stop stop-color="#CAB2FF"/>
</linearGradient>
</defs>
</svg>
